<?xml version="1.0" encoding="UTF-8" standalone="no"?>
<!-- Created with Inkscape (http://www.inkscape.org/) -->

<svg
   xmlns:dc="http://purl.org/dc/elements/1.1/"
   xmlns:cc="http://creativecommons.org/ns#"
   xmlns:rdf="http://www.w3.org/1999/02/22-rdf-syntax-ns#"
   xmlns:svg="http://www.w3.org/2000/svg"
   xmlns="http://www.w3.org/2000/svg"
   xmlns:sodipodi="http://sodipodi.sourceforge.net/DTD/sodipodi-0.dtd"
   xmlns:inkscape="http://www.inkscape.org/namespaces/inkscape"
   width="31.716784mm"
   height="36.196476mm"
   viewBox="0 0 31.716784 36.196476"
   version="1.1"
   id="svg1157"
   inkscape:version="0.92.3 (2405546, 2018-03-11)"
   sodipodi:docname="basicbasket.svg">
  <defs
     id="defs1151" />
  <sodipodi:namedview
     id="base"
     pagecolor="#ffffff"
     bordercolor="#666666"
     borderopacity="1.0"
     inkscape:pageopacity="0.0"
     inkscape:pageshadow="2"
     inkscape:zoom="0.24748737"
     inkscape:cx="893.71244"
     inkscape:cy="43.743887"
     inkscape:document-units="mm"
     inkscape:current-layer="layer1"
     showgrid="false"
     inkscape:window-width="1366"
     inkscape:window-height="705"
     inkscape:window-x="-8"
     inkscape:window-y="-8"
     inkscape:window-maximized="1"
     fit-margin-top="0"
     fit-margin-left="0"
     fit-margin-right="0"
     fit-margin-bottom="0" />
  <metadata
     id="metadata1154">
    <rdf:RDF>
      <cc:Work
         rdf:about="">
        <dc:format>image/svg+xml</dc:format>
        <dc:type
           rdf:resource="http://purl.org/dc/dcmitype/StillImage" />
        <dc:title />
      </cc:Work>
    </rdf:RDF>
  </metadata>
  <g
     inkscape:label="Camada 1"
     inkscape:groupmode="layer"
     id="layer1"
     transform="translate(-110.85996,-142.55247)">
    <path
       inkscape:connector-curvature="0"
       id="path1138"
       d="m 122.02525,178.69872 c -0.52675,-0.0906 -1.30256,-0.34063 -1.87449,-0.60408 -1.59821,-0.73617 -2.66798,-1.91962 -2.84995,-3.15272 -0.0371,-0.25032 -0.6514,-2.74972 -1.36549,-5.5543 l -1.29833,-5.09912 -1.23363,-0.0397 c -0.6785,-0.0217 -1.24204,-0.0458 -1.25235,-0.0532 -0.012,-0.007 -0.012,-1.00937 0,-2.2266 l 0.0193,-2.21317 2.72662,-0.0354 2.72662,-0.0354 0.0356,-2.30167 c 0.0354,-2.28672 0.0371,-2.30517 0.22879,-2.83126 0.3962,-1.08755 1.20968,-1.99799 2.21431,-2.47828 0.94564,-0.45211 1.0374,-0.46242 4.10764,-0.46242 h 2.76205 l 0.55878,0.19748 c 0.74508,0.26347 1.11213,0.488 1.69181,1.03481 0.95341,0.89941 1.31841,1.79749 1.37835,3.39134 0.0217,0.59382 0.066,1.00248 0.10573,0.98928 0.0371,-0.012 0.34345,-0.49319 0.68064,-1.06849 0.33718,-0.57528 0.76362,-1.21647 0.94767,-1.42488 0.59972,-0.67912 1.4171,-1.12943 2.39906,-1.32166 0.24931,-0.0487 0.47834,-0.10958 0.509,-0.13487 0.0306,-0.0255 -0.0308,-0.21361 -0.13727,-0.41822 -0.61316,-1.18184 0.25586,-2.55491 1.61701,-2.55491 0.19026,0 0.46235,0.0487 0.60483,0.10813 0.59369,0.24808 3.39825,1.92935 3.67756,2.20462 0.30141,0.29709 0.52059,0.8142 0.52059,1.22824 0,0.39504 -0.21218,0.90341 -0.50182,1.20175 -0.34856,0.35915 -0.66889,0.50505 -1.2333,0.56162 -0.48374,0.0484 -0.4789,0.0347 -0.23626,0.67996 0.1339,0.3559 0.16015,0.56875 0.16256,1.3102 0.005,0.79313 -0.0193,0.94054 -0.1917,1.41642 -0.10693,0.29213 -0.20254,0.56304 -0.21241,0.60199 -0.012,0.045 0.57746,0.0838 1.61087,0.1062 l 1.62889,0.0354 0.0193,2.19066 c 0.0144,1.70537 -0.001,2.20319 -0.071,2.24746 -0.0494,0.0311 -0.60487,0.0573 -1.23472,0.0578 l -1.14515,9.6e-4 -0.10789,0.33639 c -0.39509,1.2302 -2.87813,10.16702 -2.87936,10.36303 -0.001,0.13342 -0.0759,0.45322 -0.1669,0.71079 -0.45071,1.27684 -1.57735,2.28893 -3.16028,2.83897 l -0.67281,0.23385 -5.38242,0.012 c -2.96035,0.007 -5.53671,-0.0169 -5.72521,-0.0479 z m 1.53371,-3.28762 c 0.35291,-0.12595 0.53484,-0.29386 0.69429,-0.64104 0.12066,-0.2627 0.13005,-0.53997 0.13149,-3.81971 0.001,-3.44733 -0.002,-3.54412 -0.1469,-3.84307 -0.38851,-0.80254 -1.60221,-0.88626 -2.12958,-0.1469 l -0.16545,0.23168 -0.0217,3.61189 c -0.0145,2.33705 0.005,3.7004 0.0515,3.8627 0.091,0.31238 0.40036,0.61546 0.75874,0.7432 0.34249,0.1221 0.48737,0.1221 0.82711,9.6e-4 z m 4.4508,-0.0812 c 0.25548,-0.13077 0.46873,-0.41574 0.55741,-0.74508 0.0474,-0.17677 0.0665,-1.51806 0.0535,-3.79743 -0.0193,-3.49085 -0.0217,-3.52652 -0.17605,-3.77472 -0.36842,-0.59233 -1.26513,-0.74949 -1.82776,-0.32036 -0.46796,0.35696 -0.45975,0.28016 -0.45975,4.2903 0,3.89773 -0.007,3.8066 0.37608,4.16554 0.37695,0.35209 0.99509,0.42817 1.47673,0.18183 z m 3.83257,0.1091 c 0.36161,-0.10043 0.74121,-0.44833 0.83316,-0.76363 0.0506,-0.17267 0.0684,-1.45982 0.0539,-3.87091 l -0.0217,-3.61189 -0.16545,-0.23168 c -0.52188,-0.73167 -1.69965,-0.66537 -2.11339,0.11897 l -0.16449,0.31214 v 3.48565 c 0,1.91712 0.0193,3.58437 0.0438,3.705 0.0614,0.30759 0.43516,0.70809 0.77056,0.82586 0.34661,0.12186 0.42408,0.12475 0.76327,0.0306 z m 6.09137,-15.8431 c 0.20905,-0.23095 0.55779,-1.07254 0.63756,-1.53819 0.10404,-0.60781 -0.001,-1.22629 -0.32683,-1.91104 l -0.24647,-0.51897 0.35568,-0.62691 c 0.52439,-0.92414 0.48624,-0.89664 0.94946,-0.68459 0.24769,0.11343 0.44977,0.16208 0.55935,0.13439 0.45351,-0.11368 0.62592,-0.74571 0.28758,-1.05395 -0.25808,-0.23506 -3.13351,-1.88983 -3.36408,-1.93598 -0.36428,-0.0727 -0.70785,0.20616 -0.71173,0.57802 -0.005,0.26706 0.13776,0.47285 0.45801,0.67079 0.13632,0.0845 0.24722,0.20639 0.24635,0.27139 -9.6e-4,0.0648 -0.18399,0.42093 -0.40722,0.79099 l -0.40566,0.67279 -0.60196,0.047 c -0.96173,0.0747 -1.74706,0.46189 -2.27465,1.12189 -0.29075,0.36378 -2.39603,3.98518 -2.35519,4.05129 0.0193,0.0308 1.62147,0.0561 3.56072,0.0561 3.27996,0 3.53382,-0.01 3.63908,-0.12523 z m -8.51897,-0.12282 c 0.0677,-0.0814 0.08,-0.56557 0.0532,-2.07151 -0.0378,-2.12433 -0.0763,-2.35873 -0.50697,-3.09382 -0.21434,-0.36594 -0.85113,-0.97185 -1.21777,-1.15891 -0.70431,-0.35929 -0.8859,-0.37625 -3.79295,-0.3539 l -2.71525,0.0217 -0.53932,0.25757 c -0.94623,0.45187 -1.65071,1.34335 -1.83285,2.31942 -0.0783,0.42011 -0.0997,4.06372 -0.0241,4.13927 0.026,0.026 2.39634,0.0472 5.26749,0.0472 4.55272,0 5.23158,-0.0144 5.30843,-0.10621 z m -13.01726,-3.73585 c -3.22854,-4.5614 -5.53948,-9.48565 -5.53751,-11.79959 4.6e-4,-0.62124 0.0939,-0.92965 0.35826,-1.18248 0.19556,-0.18688 0.26321,-0.20784 0.65555,-0.20182 1.65212,0.025 4.97011,3.06415 8.29117,7.59402 0.38042,0.51887 0.67546,0.98575 0.65562,1.03746 -0.0193,0.0515 -0.15775,0.13318 -0.30665,0.18062 -0.88494,0.28312 -1.9509,1.10005 -2.51043,1.92405 -0.54216,0.79831 -0.77249,1.52153 -0.88118,2.76643 -0.0241,0.26292 -0.0686,0.47803 -0.10115,0.47803 -0.0328,0 -0.31334,-0.35853 -0.62351,-0.79672 z m 1.11929,-2.94255 c 0.38129,-0.18641 0.68601,-0.4118 1.08003,-0.79915 0.30186,-0.29678 0.54886,-0.58043 0.54886,-0.63031 0,-0.27264 -1.15303,0.1893 -1.86281,0.74651 -0.3834,0.30089 -0.82839,0.82222 -0.82839,0.9705 0,0.11993 0.51131,-0.0193 1.06231,-0.28755 z m -2.11539,-3.25 c 0.69769,-0.37651 1.67522,-1.33567 1.51972,-1.49118 -0.079,-0.079 -0.94784,0.25186 -1.38242,0.52627 -0.62937,0.39737 -1.34319,1.13696 -1.24722,1.29223 0.0544,0.0879 0.685,-0.098 1.10992,-0.32732 z"
       style="fill:#ffffff;fill-opacity:1;stroke-width:0.07082137" />
  </g>
</svg>
